<?xml version="1.0" standalone="no"?>
<!DOCTYPE svg PUBLIC "-//W3C//DTD SVG 20010904//EN"
 "http://www.w3.org/TR/2001/REC-SVG-20010904/DTD/svg10.dtd">
<svg version="1.0" xmlns="http://www.w3.org/2000/svg"
 width="224.000000pt" height="224.000000pt" viewBox="0 0 224.000000 224.000000"
 preserveAspectRatio="xMidYMid meet">
<metadata>
Created by potrace 1.10, written by Peter Selinger 2001-2011
</metadata>
<g transform="translate(0.000000,224.000000) scale(0.100000,-0.100000)"
fill="#000000" stroke="none">
<path d="M817 2005 c-4 -38 -19 -250 -33 -470 -15 -220 -28 -401 -29 -402 -1
-2 -29 23 -61 55 l-60 58 -62 -72 -62 -73 88 -62 c48 -34 90 -65 95 -69 4 -3
-35 -37 -87 -75 l-94 -69 61 -72 62 -72 57 61 c32 34 57 58 58 54 0 -12 69
-519 73 -537 2 -8 6 14 11 50 4 36 20 161 37 278 16 117 29 217 29 222 0 6
584 -411 609 -436 3 -2 -6 -18 -18 -35 -13 -17 -21 -32 -19 -33 1 -2 53 -20
113 -40 61 -21 115 -40 122 -42 6 -3 -18 48 -55 112 l-66 117 -26 -31 -26 -32
-250 236 c-137 130 -276 262 -309 295 l-59 58 89 93 c49 51 134 140 189 196
l101 104 27 -31 28 -31 57 112 c32 62 59 116 61 119 2 4 -53 -14 -122 -40
l-125 -46 29 -30 29 -30 -187 -140 c-103 -77 -189 -141 -192 -143 -4 -1 -19
183 -34 410 -15 227 -31 445 -35 483 l-7 70 -7 -70z m547 -567 c-11 -38 -24
-49 -45 -37 -26 13 -24 38 4 49 38 15 49 12 41 -12z m-519 -194 c6 -99 10
-119 30 -142 l23 -26 40 18 c23 10 39 23 35 29 -4 6 -1 7 6 2 9 -5 3 -17 -21
-43 -47 -52 -47 -52 -84 -30 -43 25 -87 17 -124 -24 l-28 -30 -53 36 c-30 20
-64 45 -76 55 l-22 19 25 33 c25 34 59 46 67 25 3 -7 23 -25 46 -40 33 -23 44
-26 55 -16 22 17 34 65 41 155 3 44 9 98 12 120 l6 40 8 -33 c3 -18 10 -85 14
-148z m23 -230 c28 -20 30 -69 3 -84 -46 -24 -111 0 -111 42 0 25 35 58 63 58
12 0 33 -7 45 -16z m-106 -104 c37 -36 76 -39 124 -9 l33 20 101 -97 c55 -54
98 -99 95 -102 -4 -5 -141 83 -163 105 -20 19 -52 16 -73 -8 -19 -22 -24 -40
-35 -129 -3 -30 -10 -64 -14 -75 -7 -19 -8 -18 -14 5 -3 14 -10 52 -16 85 -14
82 -14 81 -34 104 -22 24 -38 19 -89 -26 -20 -18 -40 -33 -45 -33 -7 0 -52 62
-52 72 0 3 23 22 50 42 28 20 58 45 67 56 23 26 27 25 65 -10z m834 -557 c29
-39 0 -59 -41 -29 -16 12 -17 16 -6 30 17 21 31 20 47 -1z"/>
<path d="M1100 1075 l-25 -13 27 -11 c33 -12 61 -55 78 -117 11 -38 16 -44 40
-44 l27 0 -35 100 c-32 93 -36 100 -61 100 -14 -1 -37 -7 -51 -15z"/>
<path d="M1357 1077 l-28 -11 33 -16 c27 -12 39 -29 63 -87 25 -61 34 -73 54
-73 14 0 21 5 18 13 -2 6 -17 51 -33 100 -31 95 -39 101 -107 74z"/>
<path d="M1506 1075 c-19 -15 -19 -15 2 -15 21 0 22 -4 22 -85 l0 -85 59 0
c32 0 74 7 92 15 l34 14 -67 1 -68 0 0 85 0 85 -27 0 c-16 0 -37 -7 -47 -15z"/>
<path d="M1036 964 l-25 -75 27 3 c19 2 28 10 30 26 3 19 9 22 47 22 35 0 43
3 39 15 -4 9 -19 15 -35 15 -32 0 -34 6 -19 44 9 23 7 26 -14 26 -21 0 -27
-10 -50 -76z"/>
<path d="M1315 1028 c-12 -32 -45 -132 -45 -135 0 -1 11 -3 25 -3 18 0 26 7
31 25 5 22 11 25 51 25 39 0 44 2 33 15 -7 8 -25 15 -41 15 -26 0 -28 2 -19
26 6 14 10 30 10 35 0 14 -40 11 -45 -3z"/>
</g>
</svg>
