<?xml version="1.0" standalone="no"?>
<!DOCTYPE svg PUBLIC "-//W3C//DTD SVG 20010904//EN"
 "http://www.w3.org/TR/2001/REC-SVG-20010904/DTD/svg10.dtd">
<svg version="1.0" xmlns="http://www.w3.org/2000/svg"
 width="224.000000pt" height="224.000000pt" viewBox="0 0 224.000000 224.000000"
 preserveAspectRatio="xMidYMid meet">
<metadata>
Created by potrace 1.16, written by Peter Selinger 2001-2019
</metadata>
<g transform="translate(0.000000,224.000000) scale(0.100000,-0.100000)"
fill="#000000" stroke="none">
<path d="M817 2074 c-4 -4 -7 -32 -7 -61 0 -30 -4 -107 -10 -171 -5 -64 -16
-216 -25 -337 -8 -121 -18 -250 -21 -288 l-6 -67 -32 27 c-17 14 -30 30 -29
35 2 4 -3 7 -10 5 -6 -1 -11 5 -9 13 2 8 0 12 -4 8 -4 -4 -13 -3 -20 3 -10 8
-20 2 -43 -23 -17 -18 -31 -37 -31 -41 0 -5 -6 -5 -12 -1 -7 4 -10 4 -6 -1 4
-4 -4 -21 -17 -37 -29 -34 -31 -46 -10 -54 8 -4 12 -11 8 -18 -3 -6 -3 -8 2
-4 8 8 95 -50 95 -64 0 -4 3 -7 8 -6 4 2 18 -5 32 -15 22 -15 21 -22 -2 -18
-5 0 -8 -3 -8 -8 0 -6 -34 -34 -75 -63 -77 -55 -85 -67 -60 -88 8 -7 12 -16 9
-21 -3 -5 -1 -8 5 -7 5 2 30 -19 55 -47 l44 -50 50 55 c37 40 52 51 56 40 3
-8 21 -129 40 -269 19 -139 37 -255 39 -257 5 -5 18 78 53 336 15 113 30 208
33 212 4 4 37 -14 73 -41 37 -27 64 -52 60 -56 -4 -5 -2 -6 3 -3 12 7 197
-126 190 -135 -3 -4 -2 -5 1 -2 9 6 94 -54 94 -66 0 -6 3 -8 8 -5 11 7 83 -50
74 -59 -4 -5 -2 -5 4 -2 7 4 26 -6 43 -22 16 -15 33 -26 36 -23 3 3 5 -1 5
-10 0 -8 -9 -23 -20 -33 -11 -10 -20 -22 -20 -26 0 -9 249 -93 256 -87 2 3
-16 40 -40 83 -25 43 -43 82 -40 87 3 4 1 8 -5 8 -6 0 -18 14 -27 32 l-17 32
-26 -31 c-26 -31 -26 -31 -48 -13 -13 10 -23 23 -23 29 0 6 -4 10 -9 9 -6 -2
-90 74 -188 169 -98 94 -198 190 -223 212 -39 35 -42 41 -23 41 15 0 23 7 25
23 3 19 10 22 55 25 49 3 53 1 59 -22 5 -20 12 -26 35 -26 16 0 29 4 29 8 0 4
-15 53 -33 107 -38 114 -48 121 -119 83 -40 -21 -41 -23 -18 -26 14 -2 31 -9
38 -15 17 -14 55 -87 49 -94 -3 -2 -8 5 -12 16 -4 14 -15 21 -31 21 -23 0 -25
3 -19 30 6 28 5 30 -22 30 -27 0 -31 -5 -52 -71 l-23 -72 -41 41 -41 41 65 68
c35 37 118 125 184 194 l120 125 23 -28 c13 -15 27 -28 31 -28 4 0 31 49 61
109 29 61 57 108 60 106 4 -2 7 2 7 10 0 21 -3 20 -130 -27 -61 -22 -118 -41
-124 -41 -18 0 -17 -1 20 -44 17 -20 26 -34 20 -29 -7 4 -13 3 -13 -2 0 -5
-17 -22 -37 -38 -20 -15 -33 -21 -29 -13 5 8 -2 3 -15 -11 -34 -37 -74 -68
-64 -50 5 8 -5 1 -21 -16 -40 -41 -120 -95 -129 -86 -5 4 -5 2 -2 -4 3 -6 -7
-20 -22 -32 l-29 -21 -6 77 c-8 97 -42 572 -51 714 -8 122 -17 173 -28 162z"/>
<path d="M1353 1083 c-39 -19 -42 -30 -10 -36 20 -4 20 -4 -4 -6 -22 -1 -28
-10 -46 -63 -12 -35 -24 -71 -28 -80 -6 -15 -2 -18 22 -18 22 0 33 7 41 25 10
21 19 25 51 25 22 0 41 3 44 8 2 4 2 1 1 -5 -2 -7 1 -13 6 -13 5 0 12 -9 15
-20 4 -14 15 -20 36 -20 16 0 29 1 29 3 0 2 -15 49 -34 104 -19 56 -32 104
-28 107 12 13 -65 4 -95 -11z"/>
<path d="M1498 1078 c-24 -24 -23 -28 7 -28 25 0 25 -1 25 -85 l0 -85 59 0
c44 0 70 6 98 23 l38 22 -67 3 -68 3 0 85 0 85 -37 -3 c-21 -1 -46 -10 -55
-20z"/>
</g>
</svg>
